<?xml version="1.0" encoding="UTF-8" standalone="no"?>
<svg
   xmlns:dc="http://purl.org/dc/elements/1.1/"
   xmlns:cc="http://creativecommons.org/ns#"
   xmlns:rdf="http://www.w3.org/1999/02/22-rdf-syntax-ns#"
   xmlns:svg="http://www.w3.org/2000/svg"
   xmlns="http://www.w3.org/2000/svg"
   viewBox="0 0 480 144"
   height="144"
   width="480"
   xml:space="preserve"
   id="svg2"
   version="1.1"><metadata
     id="metadata8"><rdf:RDF><cc:Work
         rdf:about=""><dc:format>image/svg+xml</dc:format><dc:type
           rdf:resource="http://purl.org/dc/dcmitype/StillImage" /></cc:Work></rdf:RDF></metadata><defs
     id="defs6"><clipPath
       id="clipPath38"
       clipPathUnits="userSpaceOnUse"><path
         id="path36"
         d="M 0,108 H 360 V 0 H 0 Z" /></clipPath></defs><g
     transform="matrix(1.3333333,0,0,-1.3333333,0,144)"
     id="g10"><g
       transform="translate(49.2515,53.998)"
       id="g12"><path
         id="path14"
         style="fill:#ca1c14;fill-opacity:1;fill-rule:nonzero;stroke:none"
         d="M 0,0 6.023,-6.021 12.046,0 6.023,6.022 Z M 6.023,-10.148 -4.127,0 6.023,10.149 16.172,0 Z" /></g><g
       transform="translate(55.2754,31.6104)"
       id="g16"><path
         id="path18"
         style="fill:#000000;fill-opacity:1;fill-rule:nonzero;stroke:none"
         d="m 0,0 -22.386,22.386 8.592,8.592 2.321,-2.322 -6.271,-6.27 L 0,4.642 6.27,10.914 8.593,8.591 Z" /></g><g
       transform="translate(68.9517,45.2871)"
       id="g20"><path
         id="path22"
         style="fill:#000000;fill-opacity:1;fill-rule:nonzero;stroke:none"
         d="m 0,0 -2.321,2.322 6.387,6.387 -17.742,17.745 -6.389,-6.39 -2.321,2.323 8.71,8.712 22.387,-22.39 z" /></g><g
       transform="translate(55.2734,18.3242)"
       id="g24"><path
         id="path26"
         style="fill:#000000;fill-opacity:1;fill-rule:nonzero;stroke:none"
         d="m 0,0 -15.356,15.355 2.322,2.321 L 0,4.642 31.03,35.679 18,48.71 20.322,51.031 35.673,35.679 Z" /></g><g
       transform="translate(34.833,38.7656)"
       id="g28"><path
         id="path30"
         style="fill:#000000;fill-opacity:1;fill-rule:nonzero;stroke:none"
         d="M 0,0 -15.233,15.234 20.442,50.91 35.677,35.674 33.355,33.354 20.442,46.268 -10.591,15.234 2.322,2.322 Z" /></g><g
       id="g32"><g
         clip-path="url(#clipPath38)"
         id="g34"><g
           transform="translate(109.2803,54.1055)"
           id="g40"><path
             id="path42"
             style="fill:#ca1c14;fill-opacity:1;fill-rule:nonzero;stroke:none"
             d="m 0,0 h 4.495 c 1.007,0 2.113,0.098 3.02,0.469 1.478,0.636 2.584,1.912 2.615,4.124 0,2.014 -1.072,3.493 -2.648,4.196 C 6.374,9.258 5.535,9.293 3.993,9.293 H 0 Z m 0,11.642 h 3.758 c 1.141,0 2.146,0.133 2.918,0.501 1.577,0.874 2.013,2.181 2.013,3.69 0,1.812 -0.972,3.054 -2.013,3.523 C 6.04,19.692 5.2,19.894 3.59,19.926 H 0 Z m -2.751,10.735 h 6.543 c 2.248,0 3.79,-0.404 4.897,-1.175 2.013,-1.142 2.684,-3.222 2.684,-5.168 0,-2.918 -1.644,-4.392 -3.322,-5.266 C 12.512,9.392 12.817,5.602 12.817,4.46 12.782,1.778 11.542,-0.234 9.427,-1.344 7.951,-2.25 6.543,-2.449 4.093,-2.449 h -6.844 z" /></g><path
           id="path44"
           style="fill:#ca1c14;fill-opacity:1;fill-rule:nonzero;stroke:none"
           d="m 128.232,74.002 h -2.481 v 2.48 h 2.481 z M 125.751,69.7 h 2.481 V 51.665 h -2.481 z" /><g
           transform="translate(134.4072,60.6475)"
           id="g46"><path
             id="path48"
             style="fill:#ca1c14;fill-opacity:1;fill-rule:nonzero;stroke:none"
             d="m 0,0 c 0,-4.094 3.12,-7.18 7.113,-7.18 4.025,0 7.112,3.086 7.112,7.212 0,4.127 -3.087,7.212 -7.112,7.212 C 3.12,7.244 0,4.159 0,0.032 Z m -2.448,0.065 c 0,5.035 3.755,9.495 9.561,9.495 5.837,0 9.594,-4.46 9.594,-9.528 0,-5.066 -3.757,-9.496 -9.594,-9.496 -5.806,0 -9.561,4.43 -9.561,9.496 z" /></g><path
           id="path50"
           style="fill:#ca1c14;fill-opacity:1;fill-rule:nonzero;stroke:none"
           d="m 154.809,76.482 h 2.752 V 51.656 h -2.752 z" /><g
           transform="translate(162.4922,69.7051)"
           id="g52"><path
             id="path54"
             style="fill:#ca1c14;fill-opacity:1;fill-rule:nonzero;stroke:none"
             d="m 0,0 h 2.348 c 0,-1.007 0,-2.014 -0.034,-3.222 1.04,2.349 3.489,3.79 6.708,3.724 5.604,-0.067 7.583,-3.891 7.583,-8.285 v -10.266 h -2.45 v 9.762 c 0,3.89 -1.742,6.542 -5.803,6.474 C 4.628,-1.846 2.481,-4.092 2.481,-7.852 V -18.049 H 0 Z" /></g><g
           transform="translate(185.3037,67.7266)"
           id="g56"><path
             id="path58"
             style="fill:#ca1c14;fill-opacity:1;fill-rule:nonzero;stroke:none"
             d="M 0,0 H -3.555 V 1.979 H 0 V 8.756 H 2.448 V 1.979 H 6.405 V 0 H 2.448 V -16.07 H 0 Z" /></g><g
           transform="translate(208.5195,61.9541)"
           id="g60"><path
             id="path62"
             style="fill:#ca1c14;fill-opacity:1;fill-rule:nonzero;stroke:none"
             d="m 0,0 c -0.168,3.153 -3.223,6.241 -6.943,6.14 -3.893,0 -6.782,-2.852 -7.014,-6.14 z m -13.99,-1.981 c 0.135,-4.527 3.991,-6.707 7.047,-6.673 2.781,0 5.029,1.373 6.205,3.723 h 2.584 c -0.84,-1.946 -2.116,-3.423 -3.66,-4.394 -1.508,-0.973 -3.288,-1.477 -5.129,-1.477 -6.276,0 -9.532,4.997 -9.532,9.495 0,5.3 4.094,9.56 9.496,9.56 2.549,0 4.899,-0.905 6.61,-2.549 2.08,-2.014 3.086,-4.799 2.816,-7.685 z" /></g><path
           id="path64"
           style="fill:#ca1c14;fill-opacity:1;fill-rule:nonzero;stroke:none"
           d="m 214.488,76.482 h 2.482 V 51.656 h -2.482 z" /><path
           id="path66"
           style="fill:#ca1c14;fill-opacity:1;fill-rule:nonzero;stroke:none"
           d="m 221.768,76.482 h 2.484 V 51.656 h -2.484 z" /><path
           id="path68"
           style="fill:#ca1c14;fill-opacity:1;fill-rule:nonzero;stroke:none"
           d="m 229.047,69.705 h 2.484 V 51.656 h -2.484 z" /><g
           transform="translate(237.7031,60.6797)"
           id="g70"><path
             id="path72"
             style="fill:#ca1c14;fill-opacity:1;fill-rule:nonzero;stroke:none"
             d="m 0,0 c 0,-3.656 2.584,-7.212 7.246,-7.212 2.045,0 3.791,0.771 5.067,2.079 1.242,1.309 1.978,3.12 2.013,5.101 0,1.509 -0.504,3.287 -1.644,4.728 C 11.574,6.14 9.764,7.212 7.18,7.212 3.221,7.212 0,4.259 0,0.033 Z m 16.707,-6.943 c 0,-3.423 -1.107,-5.605 -2.684,-7.114 -1.779,-1.746 -4.394,-2.787 -6.843,-2.787 -4.494,0 -7.785,2.586 -8.924,5.84 h 2.851 c 0.436,-0.77 1.073,-1.642 2.145,-2.383 1.31,-0.939 2.855,-1.305 3.994,-1.305 3.457,0 6.981,2.681 6.981,7.177 V -5.2 c -1.276,-2.549 -3.793,-4.327 -7.282,-4.327 -5.636,0 -9.427,4.294 -9.427,9.495 0,5.398 3.925,9.559 9.427,9.559 3.557,0 6.307,-2.011 7.315,-4.226 v 3.724 h 2.447 z" /></g><g
           transform="translate(274.3047,61.9541)"
           id="g74"><path
             id="path76"
             style="fill:#ca1c14;fill-opacity:1;fill-rule:nonzero;stroke:none"
             d="m 0,0 c -0.17,3.153 -3.221,6.241 -6.945,6.14 -3.891,0 -6.778,-2.852 -7.012,-6.14 z m -13.99,-1.981 c 0.135,-4.527 3.992,-6.707 7.045,-6.673 2.783,0 5.033,1.373 6.207,3.723 h 2.584 c -0.84,-1.946 -2.116,-3.423 -3.657,-4.394 -1.509,-0.973 -3.289,-1.477 -5.134,-1.477 -6.272,0 -9.528,4.997 -9.528,9.495 0,5.3 4.092,9.56 9.494,9.56 2.551,0 4.899,-0.905 6.61,-2.549 C 1.709,3.69 2.717,0.905 2.447,-1.981 Z" /></g><g
           transform="translate(280.2734,69.7051)"
           id="g78"><path
             id="path80"
             style="fill:#ca1c14;fill-opacity:1;fill-rule:nonzero;stroke:none"
             d="m 0,0 h 2.348 c 0,-1.007 0,-2.014 -0.032,-3.222 1.038,2.349 3.489,3.79 6.709,3.724 5.602,-0.067 7.582,-3.891 7.582,-8.285 V -18.049 H 14.16 v 9.762 c 0,3.89 -1.746,6.542 -5.806,6.474 C 4.631,-1.846 2.482,-4.092 2.482,-7.852 V -18.049 H 0 Z" /></g><g
           transform="translate(319.2578,57.7617)"
           id="g82"><path
             id="path84"
             style="fill:#ca1c14;fill-opacity:1;fill-rule:nonzero;stroke:none"
             d="m 0,0 c -1.178,-3.824 -4.697,-6.609 -9.025,-6.609 -6.106,0 -9.696,4.696 -9.696,9.527 0,5.334 4.059,9.527 9.528,9.527 4.06,0 7.951,-2.414 9.193,-6.745 h -2.551 c -1.14,3.057 -3.992,4.465 -6.541,4.465 -2.115,0 -3.592,-0.638 -5.099,-2.046 -1.209,-1.176 -2.047,-3.122 -2.047,-5.201 0,-4.262 3.22,-7.212 7.111,-7.212 3.455,0.032 5.77,2.114 6.543,4.294 z" /></g><g
           transform="translate(337.9082,61.9541)"
           id="g86"><path
             id="path88"
             style="fill:#ca1c14;fill-opacity:1;fill-rule:nonzero;stroke:none"
             d="m 0,0 c -0.168,3.153 -3.221,6.241 -6.945,6.14 -3.893,0 -6.776,-2.852 -7.012,-6.14 z m -13.988,-1.981 c 0.134,-4.527 3.99,-6.707 7.043,-6.673 2.785,0 5.033,1.373 6.207,3.723 h 2.584 c -0.838,-1.946 -2.114,-3.423 -3.657,-4.394 -1.511,-0.973 -3.289,-1.477 -5.134,-1.477 -6.274,0 -9.528,4.997 -9.528,9.495 0,5.3 4.096,9.56 9.494,9.56 2.553,0 4.899,-0.905 6.61,-2.549 2.08,-2.014 3.088,-4.799 2.818,-7.685 z" /></g><path
           id="path90"
           style="fill:#ca1c14;fill-opacity:1;fill-rule:nonzero;stroke:none"
           d="m 231.525,74.002 h -2.479 v 2.48 h 2.479 z" /><g
           transform="translate(108.3691,38.8887)"
           id="g92"><path
             id="path94"
             style="fill:#000000;fill-opacity:1;fill-rule:nonzero;stroke:none"
             d="M 0,0 H -1.743 V 1.426 H 3.352 V 0 H 1.622 V -6.633 H 0 Z" /></g><g
           transform="translate(113.1177,40.3145)"
           id="g96"><path
             id="path98"
             style="fill:#000000;fill-opacity:1;fill-rule:nonzero;stroke:none"
             d="M 0,0 H 4.518 V -1.426 H 1.622 v -1.828 h 2.843 v -1.43 H 1.622 V -6.63 H 4.518 V -8.059 H 0 Z" /></g><g
           transform="translate(127.2856,34.957)"
           id="g100"><path
             id="path102"
             style="fill:#000000;fill-opacity:1;fill-rule:nonzero;stroke:none"
             d="m 0,0 c -0.491,-1.666 -2.058,-2.854 -3.943,-2.854 -2.461,0 -4.224,1.951 -4.224,4.192 0,2.146 1.667,4.173 4.214,4.173 C -1.635,5.498 -0.316,3.791 0,2.613 h -1.71 c -0.25,0.555 -0.97,1.459 -2.254,1.469 -1.567,0 -2.58,-1.316 -2.58,-2.744 0,-1.47 1.057,-2.763 2.591,-2.763 1.437,0 2.09,1.132 2.243,1.425 z" /></g><g
           transform="translate(128.9443,32.2559)"
           id="g104"><path
             id="path106"
             style="fill:#000000;fill-opacity:1;fill-rule:nonzero;stroke:none"
             d="M 0,0 V 8.059 H 1.621 V 4.824 H 4.725 V 8.059 H 6.347 V 0 H 4.725 V 3.398 H 1.621 L 1.621,0 Z" /></g><g
           transform="translate(142.502,34.7295)"
           id="g108"><path
             id="path110"
             style="fill:#000000;fill-opacity:1;fill-rule:nonzero;stroke:none"
             d="M 0,0 -0.031,5.585 H 1.525 V -2.474 H 0.086 l -3.711,5.576 0.033,-5.576 H -5.149 V 5.585 H -3.7 Z" /></g><g
           transform="translate(147.3735,36.2871)"
           id="g112"><path
             id="path114"
             style="fill:#000000;fill-opacity:1;fill-rule:nonzero;stroke:none"
             d="m 0,0 c 0,-1.471 1.056,-2.755 2.623,-2.755 1.635,0 2.591,1.413 2.591,2.741 0,1.352 -0.956,2.766 -2.601,2.766 C 1.002,2.752 0,1.424 0,0.008 Z m -1.622,-0.066 c 0,2.58 1.98,4.247 4.225,4.247 2.437,0 4.235,-1.896 4.235,-4.181 0,-2.288 -1.787,-4.185 -4.248,-4.185 -2.471,0 -4.212,1.952 -4.212,4.107 z" /></g><g
           transform="translate(155.958,40.3145)"
           id="g116"><path
             id="path118"
             style="fill:#000000;fill-opacity:1;fill-rule:nonzero;stroke:none"
             d="M 0,0 H 1.622 V -6.63 H 4.267 V -8.059 H 0 Z" /></g><g
           transform="translate(162.3716,36.2871)"
           id="g120"><path
             id="path122"
             style="fill:#000000;fill-opacity:1;fill-rule:nonzero;stroke:none"
             d="m 0,0 c 0,-1.471 1.057,-2.755 2.625,-2.755 1.634,0 2.592,1.413 2.592,2.741 0,1.352 -0.958,2.766 -2.603,2.766 C 1.002,2.752 0,1.424 0,0.008 Z m -1.621,-0.066 c 0,2.58 1.981,4.247 4.223,4.247 2.44,0 4.236,-1.896 4.236,-4.181 0,-2.288 -1.786,-4.185 -4.247,-4.185 -2.47,0 -4.212,1.952 -4.212,4.107 z" /></g><g
           transform="translate(176.9438,37.8418)"
           id="g124"><path
             id="path126"
             style="fill:#000000;fill-opacity:1;fill-rule:nonzero;stroke:none"
             d="m 0,0 c -0.163,0.25 -0.36,0.481 -0.598,0.664 -0.414,0.327 -0.926,0.533 -1.547,0.533 -1.295,0 -2.612,-0.979 -2.612,-2.732 0,-1.819 1.327,-2.775 2.612,-2.775 0.642,0 1.187,0.186 1.6,0.49 0.424,0.303 0.708,0.74 0.829,1.218 h -3.006 v 1.308 h 4.877 c 0.022,-0.534 -0.054,-1.351 -0.36,-2.028 -0.751,-1.675 -2.481,-2.417 -3.929,-2.417 -2.406,0 -4.247,1.863 -4.247,4.204 0,2.406 1.916,4.161 4.269,4.161 1.818,0 3.419,-1.157 3.94,-2.626 z" /></g><path
           id="path128"
           style="fill:#000000;fill-opacity:1;fill-rule:nonzero;stroke:none"
           d="m 180.769,40.314 h 1.624 v -8.059 h -1.624 z" /><g
           transform="translate(184.4492,40.3145)"
           id="g130"><path
             id="path132"
             style="fill:#000000;fill-opacity:1;fill-rule:nonzero;stroke:none"
             d="M 0,0 H 4.52 V -1.426 H 1.624 v -1.828 h 2.841 v -1.43 H 1.624 V -6.63 H 4.52 V -8.059 H 0 Z" /></g><g
           transform="translate(191.9775,34.7617)"
           id="g134"><path
             id="path136"
             style="fill:#000000;fill-opacity:1;fill-rule:nonzero;stroke:none"
             d="m 0,0 c 0.054,-1.089 0.784,-1.297 1.132,-1.297 0.621,0 1.097,0.501 1.097,1.068 0,0.686 -0.576,0.86 -1.697,1.307 -0.609,0.216 -2.013,0.718 -2.013,2.24 0,1.547 1.361,2.388 2.668,2.388 1.066,0 2.482,-0.569 2.546,-2.352 H 2.132 c -0.065,0.369 -0.205,0.99 -1,0.99 C 0.599,4.344 0.141,3.973 0.141,3.43 0.13,2.83 0.565,2.678 1.927,2.112 3.157,1.578 3.843,0.988 3.843,-0.152 c 0,-1.296 -0.795,-2.507 -2.69,-2.507 -1.828,0 -2.775,1.1 -2.766,2.659 z" /></g></g></g></g></svg>