<svg xmlns="http://www.w3.org/2000/svg" viewBox="0 0 240.14 66.56" width="240.14" height="66.56" id="svg-replaced-0" class="attachment-svg size-svg replaced-svg svg-replaced-0"><path d="M18.31 14.62c-.78-1-2.55-3.46-7.2-3.46-3.7 0-4.94 1.44-4.94 2.67 0 1.73 2.14 2 5.19 2.43 6.05.74 11.56 1.74 11.56 7.16 0 6.5-7.45 7.25-11 7.25-7.61 0-10-3.05-11.89-5.4l4.32-2.51c1.77 2.88 4.86 3.79 8.06 3.79 2.72 0 5.19-.83 5.19-2.76 0-1.69-1.23-1.85-6.67-2.59-8.38-1.07-10.11-3.75-10.11-7.12 0-2.31 1.81-7 10.41-7 2.51 0 8 .58 11.32 5.23zM26.05 0h5.1v10.58a10.24 10.24 0 0 1 8.19-3.5c4.66 0 8.66 1.92 8.66 8.69v14.15h-5.12v-12.26c0-4.36-1.31-6.21-4.74-6.21-4.07 0-5.71 1.68-7 3.25v15.22h-5.1zM75.6 23.29c-.37 1.82-3.34 7.38-11.53 7.38-7.9 0-12.63-5-12.63-11.86 0-6.26 4.11-11.73 12.26-11.73 8.3.08 12.3 5.23 12.3 13.21h-19.37c.2 1.41 1 6 7.28 6.26 3.21 0 5.35-1.52 6.09-3.26zm-5-6.95c-.79-3.74-3.34-5.14-7-5.14-2.67 0-5.76.9-6.79 5.14zM80.21 7.82h5.1v3.3h.13a8.45 8.45 0 0 1 7.73-4 12.41 12.41 0 0 1 1.83.04v5.52a11 11 0 0 0-3.13-.41c-6.5 0-6.5 4.36-6.55 5.93v11.72h-5.1zM98.69 0h5.1v10.13c2.21-1.57 4.21-3.05 8.48-3.05 7.28 0 11.85 4.94 11.85 11.65 0 7.49-5.39 11.94-11.64 11.94a11.49 11.49 0 0 1-8.77-3.59v2.84h-5zm5.1 23.09c2 1.52 4 3.21 7.53 3.21 4 0 7.61-2.55 7.61-7.41s-3.86-7.44-7.77-7.44a10.78 10.78 0 0 0-7.37 3zM128.2 7.82h5.1v3.3h.12a8.47 8.47 0 0 1 7.74-4 12.26 12.26 0 0 1 1.81.08v5.52a10.89 10.89 0 0 0-3.13-.41c-6.5 0-6.5 4.36-6.54 5.93v11.68h-5.1zM191.66 0h5.11v16.92l11.23-9.1h7.33l-9.43 7.49 10 14.61h-6.13l-7.77-11.47-5.22 4.19v7.28h-5.11zM239.73 23.29c-.37 1.82-3.33 7.38-11.52 7.38-7.91 0-12.64-5-12.64-11.86 0-6.26 4.12-11.73 12.27-11.73 8.31.08 12.3 5.23 12.3 13.21h-19.38c.2 1.41 1 6 7.28 6.26 3.21 0 5.35-1.52 6.09-3.26zm-5-6.95c-.78-3.74-3.34-5.14-7-5.14-2.67 0-5.76.9-6.79 5.14zM10.75 38.57h3.9v2.15a8.25 8.25 0 0 1 6.41-2.72c3.58 0 6.71 1.5 6.71 6.75v11h-4v-9.54c0-3.39-1-4.82-3.67-4.82a6.12 6.12 0 0 0-5.43 2.52v11.82h-4zM31.32 38.57h3.89v2.15a8.25 8.25 0 0 1 6.41-2.72c3.59 0 6.72 1.5 6.72 6.75v11h-4v-9.54c0-3.39-1-4.82-3.67-4.82a6.13 6.13 0 0 0-5.43 2.52v11.82h-4zM50.77 47.14c0-4.6 2.77-9.14 9.6-9.14s9.63 4.54 9.63 9.14c0 6.83-4.92 9.16-9.62 9.16s-9.61-2.3-9.61-9.16zm15.23-.07c0-4-2.58-5.68-5.59-5.68s-5.63 1.61-5.63 5.68c0 3.65 2 5.85 5.59 5.85s5.63-2.2 5.63-5.85zM72.67 39h2.58v2.53c2.4-1.95 4.09-3 7.93-3a8.65 8.65 0 0 1 9.13 8.72c0 3.86-2.43 9-9.58 9-3.45 0-5.18-1.12-7.48-2.81v8.16h-2.58zm2.58 11.73a9.65 9.65 0 0 0 7.32 3.27c3.45 0 7.15-1.79 7.15-6.87 0-3.45-2.68-6.44-7.22-6.44-2.77 0-5.65 1.82-7.25 3.54zM94.36 47.07c0-4.76 3.76-8.56 9.64-8.56s9.62 3.8 9.62 8.56c0 5.91-3.93 9.17-9.62 9.17s-9.64-3.24-9.64-9.17zm16.67.32c0-3-2-6.67-7-6.67s-7 3.63-7 6.67c0 4 2.68 6.64 7 6.64s6.97-2.65 6.97-6.64zM116.91 32.51h2.59v23.22h-2.59zM141.31 52.24c-1.73 1.83-3.39 4-9.06 4s-9.46-3.84-9.46-8.94c0-5.31 4-8.79 9.13-8.79 5.33 0 10 2.78 9.87 9.39h-16.42a6.76 6.76 0 0 0 7.13 6.1c4.31 0 5.75-2 6.8-3.26zm-2.31-6.54c-.51-2.76-2.88-5-6.84-5-3.8 0-5.94 1.92-6.67 5zM6.89 55.87h-4v-17.15h4z"></path><path d="M7.6 63.59a3 3 0 1 1-3-3 3 3 0 0 1 3 3zM175.47 6.13a12.2 12.2 0 0 0-8.05 3.05 22.48 22.48 0 0 1 2.87 5.28 6.49 6.49 0 0 1 5.18-2.58 6.59 6.59 0 0 1 0 13.17c-3.64 0-5.65-3.07-6.6-6.59-1.76-6.58-5.51-12.33-12.33-12.33a12.34 12.34 0 1 0 0 24.67 12.17 12.17 0 0 0 8.05-3.05 21.77 21.77 0 0 1-2.86-5.26 6.58 6.58 0 1 1-5.19-10.61c3.64 0 5.65 3.07 6.59 6.58 1.76 6.59 5.53 12.34 12.34 12.34a12.34 12.34 0 0 0 0-24.67z" fill="#49a942"></path></svg>
